<?xml version="1.0" encoding="UTF-8"?>
<svg xmlns="http://www.w3.org/2000/svg" width="3000" height="1000">
    <defs>
        <filter id="shadow" x="-50%" y="-50%" width="200%" height="200%">
            <feOffset result="offOut" in="SourceImage" dx="0" dy="0" />
            <feGaussianBlur result="blurOut" in="offOut" stdDeviation="5" />
            <feBlend in="SourceGraphic" in2="blurOut" mode="normal" />
        </filter>
    </defs>
    <g transform="translate(950, 100)" filter="url(#shadow)">
        <rect x="0" y="0" width="200" height="200" fill="#070538" transform="rotate(40)"/>
        <rect x="0" y="20" width="180" height="180" fill="#080758" transform="rotate(30)"/>
        <rect x="0" y="40" width="160" height="160" fill="#090978" transform="rotate(20)"/>
        <rect x="0" y="60" width="140" height="140" fill="#0a3088" transform="rotate(10)"/>
        <rect x="0" y="80" width="120" height="120" fill="#1a50a8" transform="rotate(0)"/>
    </g>
    <!-- <g transform="translate(2050, 600) rotate(180)" filter="url(#shadow)">
        <rect x="0" y="0" width="200" height="200" fill="#070538" transform="rotate(40)"/>
        <rect x="0" y="20" width="180" height="180" fill="#080758" transform="rotate(30)"/>
        <rect x="0" y="40" width="160" height="160" fill="#090978" transform="rotate(20)"/>
        <rect x="0" y="60" width="140" height="140" fill="#0a3088" transform="rotate(10)"/>
        <rect x="0" y="80" width="120" height="120" fill="#1a50a8" transform="rotate(0)"/>
    </g> -->
    <g transform="translate(900, 0)" filter="url(#shadow)">
        <path d="M 110 -10 C 160 0, 160 0, 170 10 S 190 20, 240 20 L 630 20 L 630 -10 Z" fill="#070538" />
        <path d="M 1100 -10 C 1050 0, 1050 0, 1040 10 S 1020 20, 970 20 L 630 20 L 630 -10 Z" fill="#070538" />
        <path d="M 120 -10 C 170 0, 170 0, 180 15 S 200 30, 250 30 L 630 30 L 630 -10 Z" fill="#080758" />
        <path d="M 1090 -10 C 1040 0, 1040 0, 1030 15 S 1010 30, 960 30 L 630 30 L 630 -10 Z" fill="#080758" />
        <path d="M 130 -10 C 180 0, 180 0, 190 20 S 210 40, 260 40 L 630 40 L 630 -10 Z" fill="#090978" />
        <path d="M 1080 -10 C 1030 0, 1030 0, 1020 20 S 1000 40, 950 40 L 630 40 L 630 -10 Z" fill="#090978" />
        <path d="M 140 -10 C 190 0, 190 0, 200 25 S 220 50, 270 50 L 630 50 L 630 -10 Z" fill="#0a3088" />
        <path d="M 1070 -10 C 1020 0, 1020 0, 1010 25 S 990 50, 940 50 L 630 50 L 630 -10 Z" fill="#0a3088" />
        <path d="M 150 -10 C 200 0, 200 0, 210 30 S 230 60, 280 60 L 630 60 L 630 -10 Z" fill="#1a50a8" />
        <path d="M 1060 -10 C 1010 0, 1010 0, 1000 30 S 980 60, 930 60 L 630 60 l 0 -70 Z" fill="#1a50a8" />
    </g>
</svg>