<svg xmlns="http://www.w3.org/2000/svg" width="3000" height="1000"><defs><filter id="a" x="-50%" y="-50%" width="200%" height="200%"><feOffset result="offOut" in="SourceImage"/><feGaussianBlur result="blurOut" in="offOut" stdDeviation="5"/><feBlend in="SourceGraphic" in2="blurOut"/></filter></defs><g transform="translate(950 100)" filter="url(#a)"><path fill="#070538" d="M0 0l153.209 128.558L24.65 281.766-128.558 153.21z"/><path fill="#080758" d="M-10 17.32l155.885 90-90 155.885-155.885-90z"/><path fill="#090978" d="M-13.68 37.588L136.67 92.31 81.947 242.66-68.404 187.94z"/><path fill="#0a3088" d="M-10.419 59.088L127.454 83.4l-24.31 137.873-137.874-24.31z"/><path fill="#1a50a8" d="M0 80h120v120H0z"/></g><g transform="translate(900)" filter="url(#a)"><path d="M110-10c50 10 50 10 60 20s20 10 70 10h390v-30zM1100-10c-50 10-50 10-60 20s-20 10-70 10H630v-30z" fill="#070538"/><path d="M120-10c50 10 50 10 60 25s20 15 70 15h380v-40zM1090-10c-50 10-50 10-60 25s-20 15-70 15H630v-40z" fill="#080758"/><path d="M130-10c50 10 50 10 60 30s20 20 70 20h370v-50zM1080-10c-50 10-50 10-60 30s-20 20-70 20H630v-50z" fill="#090978"/><path d="M140-10c50 10 50 10 60 35s20 25 70 25h360v-60zM1070-10c-50 10-50 10-60 35s-20 25-70 25H630v-60z" fill="#0a3088"/><path d="M150-10c50 10 50 10 60 40s20 30 70 30h350v-70zM1060-10c-50 10-50 10-60 40s-20 30-70 30H630v-70z" fill="#1a50a8"/></g></svg>